<svg width="33" height="40" viewBox="0 0 33 40" fill="none" xmlns="http://www.w3.org/2000/svg">
<g filter="url(#filter0_d_9_1113)">
<path d="M16.4908 14.0001C17.7974 14.0001 19.0746 13.5896 20.1609 12.8204C21.2473 12.0512 22.094 10.958 22.5939 9.67888C23.0939 8.3998 23.2248 6.99233 22.9699 5.63446C22.715 4.2766 22.0858 3.02931 21.162 2.05035C20.2381 1.07138 19.061 0.404694 17.7796 0.134598C16.4982 -0.135499 15.1699 0.00312452 13.9629 0.532938C12.7558 1.06275 11.7241 1.95996 10.9982 3.1111C10.2723 4.26225 9.88489 5.61563 9.88489 7.0001C9.88489 8.85661 10.5809 10.6371 11.8197 11.9498C13.0586 13.2626 14.7388 14.0001 16.4908 14.0001Z" fill="#231F20"/>
<path d="M26.3992 31.5002C26.8372 31.5002 27.2572 31.3159 27.5669 30.9877C27.8767 30.6595 28.0506 30.2144 28.0506 29.7502C28.0506 26.5013 26.8327 23.3855 24.6647 21.0882C22.4967 18.7909 19.5562 17.5002 16.4902 17.5002C13.4242 17.5002 10.4838 18.7909 8.31578 21.0882C6.14778 23.3855 4.92981 26.5013 4.92981 29.7502C4.92981 30.2144 5.10381 30.6595 5.41352 30.9877C5.72323 31.3159 6.1433 31.5002 6.5813 31.5002H26.3992Z" fill="#231F20"/>
</g>
<defs>
<filter id="filter0_d_9_1113" x="0.929688" y="0" width="31.121" height="39.5002" filterUnits="userSpaceOnUse" color-interpolation-filters="sRGB">
<feFlood flood-opacity="0" result="BackgroundImageFix"/>
<feColorMatrix in="SourceAlpha" type="matrix" values="0 0 0 0 0 0 0 0 0 0 0 0 0 0 0 0 0 0 127 0" result="hardAlpha"/>
<feOffset dy="4"/>
<feGaussianBlur stdDeviation="2"/>
<feComposite in2="hardAlpha" operator="out"/>
<feColorMatrix type="matrix" values="0 0 0 0 0 0 0 0 0 0 0 0 0 0 0 0 0 0 0.25 0"/>
<feBlend mode="normal" in2="BackgroundImageFix" result="effect1_dropShadow_9_1113"/>
<feBlend mode="normal" in="SourceGraphic" in2="effect1_dropShadow_9_1113" result="shape"/>
</filter>
</defs>
</svg>
