<svg width="1713" height="886" viewBox="0 0 1713 886" fill="none" xmlns="http://www.w3.org/2000/svg">
<rect width="1713" height="886" fill="#1E1E1E"/>
<rect width="1713" height="886" fill="white" fill-opacity="0.9"/>
<rect x="416" y="157" width="882" height="571" rx="35" fill="white"/>
<path d="M779.636 246V199.455H795.909C799.152 199.455 801.826 200.015 803.932 201.136C806.038 202.242 807.606 203.735 808.636 205.614C809.667 207.477 810.182 209.545 810.182 211.818C810.182 213.818 809.826 215.47 809.114 216.773C808.417 218.076 807.492 219.106 806.341 219.864C805.205 220.621 803.97 221.182 802.636 221.545V222C804.061 222.091 805.492 222.591 806.932 223.5C808.371 224.409 809.576 225.712 810.545 227.409C811.515 229.106 812 231.182 812 233.636C812 235.97 811.47 238.068 810.409 239.932C809.348 241.795 807.674 243.273 805.386 244.364C803.098 245.455 800.121 246 796.455 246H779.636ZM785.273 241H796.455C800.136 241 802.75 240.288 804.295 238.864C805.856 237.424 806.636 235.682 806.636 233.636C806.636 232.061 806.235 230.606 805.432 229.273C804.629 227.924 803.485 226.848 802 226.045C800.515 225.227 798.758 224.818 796.727 224.818H785.273V241ZM785.273 219.909H795.727C797.424 219.909 798.955 219.576 800.318 218.909C801.697 218.242 802.788 217.303 803.591 216.091C804.409 214.879 804.818 213.455 804.818 211.818C804.818 209.773 804.106 208.038 802.682 206.614C801.258 205.174 799 204.455 795.909 204.455H785.273V219.909ZM834.716 246.727C831.564 246.727 828.799 245.977 826.42 244.477C824.057 242.977 822.208 240.879 820.875 238.182C819.557 235.485 818.898 232.333 818.898 228.727C818.898 225.091 819.557 221.917 820.875 219.205C822.208 216.492 824.057 214.386 826.42 212.886C828.799 211.386 831.564 210.636 834.716 210.636C837.867 210.636 840.625 211.386 842.989 212.886C845.367 214.386 847.216 216.492 848.534 219.205C849.867 221.917 850.534 225.091 850.534 228.727C850.534 232.333 849.867 235.485 848.534 238.182C847.216 240.879 845.367 242.977 842.989 244.477C840.625 245.977 837.867 246.727 834.716 246.727ZM834.716 241.909C837.11 241.909 839.08 241.295 840.625 240.068C842.17 238.841 843.314 237.227 844.057 235.227C844.799 233.227 845.17 231.061 845.17 228.727C845.17 226.394 844.799 224.22 844.057 222.205C843.314 220.189 842.17 218.561 840.625 217.318C839.08 216.076 837.11 215.455 834.716 215.455C832.322 215.455 830.352 216.076 828.807 217.318C827.261 218.561 826.117 220.189 825.375 222.205C824.633 224.22 824.261 226.394 824.261 228.727C824.261 231.061 824.633 233.227 825.375 235.227C826.117 237.227 827.261 238.841 828.807 240.068C830.352 241.295 832.322 241.909 834.716 241.909ZM864.085 238.091L880.903 211.091H887.085V246H881.722V219L864.994 246H858.722V211.091H864.085V238.091ZM877.358 199.455H882.358C882.358 201.909 881.509 203.917 879.812 205.477C878.116 207.038 875.813 207.818 872.903 207.818C870.04 207.818 867.759 207.038 866.062 205.477C864.381 203.917 863.54 201.909 863.54 199.455H868.54C868.54 200.636 868.866 201.674 869.517 202.568C870.184 203.462 871.313 203.909 872.903 203.909C874.494 203.909 875.631 203.462 876.312 202.568C877.009 201.674 877.358 200.636 877.358 199.455ZM892.159 216.091V211.091H920.523V216.091H909.068V246H903.705V216.091H892.159ZM933.71 238.091L950.528 211.091H956.71V246H951.347V219L934.619 246H928.347V211.091H933.71V238.091Z" fill="black"/>
<path d="M517.023 339V335.761H517.875C519.087 335.761 520.029 335.373 520.702 334.597C521.374 333.82 521.857 332.565 522.151 330.832C522.454 329.099 522.657 326.803 522.761 323.943L523.273 309.909H541V339H537.477V313.034H526.625L526.17 324.625C526.057 327.674 525.777 330.269 525.332 332.409C524.887 334.549 524.106 336.183 522.989 337.31C521.871 338.437 520.242 339 518.102 339H517.023ZM556.447 339.455C554.478 339.455 552.75 338.986 551.263 338.048C549.786 337.111 548.63 335.799 547.797 334.114C546.973 332.428 546.561 330.458 546.561 328.205C546.561 325.932 546.973 323.948 547.797 322.253C548.63 320.558 549.786 319.241 551.263 318.304C552.75 317.366 554.478 316.898 556.447 316.898C558.417 316.898 560.141 317.366 561.618 318.304C563.105 319.241 564.26 320.558 565.084 322.253C565.917 323.948 566.334 325.932 566.334 328.205C566.334 330.458 565.917 332.428 565.084 334.114C564.26 335.799 563.105 337.111 561.618 338.048C560.141 338.986 558.417 339.455 556.447 339.455ZM556.447 336.443C557.944 336.443 559.175 336.06 560.141 335.293C561.107 334.526 561.821 333.517 562.286 332.267C562.75 331.017 562.982 329.663 562.982 328.205C562.982 326.746 562.75 325.387 562.286 324.128C561.821 322.868 561.107 321.85 560.141 321.074C559.175 320.297 557.944 319.909 556.447 319.909C554.951 319.909 553.72 320.297 552.754 321.074C551.788 321.85 551.073 322.868 550.609 324.128C550.145 325.387 549.913 326.746 549.913 328.205C549.913 329.663 550.145 331.017 550.609 332.267C551.073 333.517 551.788 334.526 552.754 335.293C553.72 336.06 554.951 336.443 556.447 336.443ZM584.917 317.182V320.307H574.803V339H571.451V317.182H584.917ZM593.163 334.057L603.674 317.182H607.538V339H604.185V322.125L593.731 339H589.81V317.182H593.163V334.057ZM628.28 326.557V329.682H616.234V326.557H628.28ZM617.03 317.182V339H613.678V317.182H617.03ZM630.837 317.182V339H627.484V317.182H630.837Z" fill="black"/>
<rect x="518" y="363" width="700" height="55" rx="15" fill="#E8E8E8"/>
<path d="M543.284 466.909V496H539.761V470.034H525.102V496H521.58V466.909H543.284ZM556.356 496.511C554.973 496.511 553.719 496.251 552.592 495.73C551.465 495.2 550.57 494.438 549.907 493.443C549.244 492.439 548.913 491.227 548.913 489.807C548.913 488.557 549.159 487.544 549.651 486.767C550.144 485.981 550.802 485.366 551.626 484.92C552.45 484.475 553.359 484.144 554.353 483.926C555.357 483.699 556.365 483.519 557.379 483.386C558.704 483.216 559.779 483.088 560.603 483.003C561.436 482.908 562.042 482.752 562.421 482.534C562.809 482.316 563.004 481.937 563.004 481.398V481.284C563.004 479.883 562.62 478.794 561.853 478.017C561.095 477.241 559.945 476.852 558.401 476.852C556.801 476.852 555.546 477.203 554.637 477.903C553.728 478.604 553.089 479.352 552.719 480.148L549.538 479.011C550.106 477.686 550.863 476.653 551.81 475.915C552.767 475.167 553.808 474.646 554.935 474.352C556.072 474.049 557.189 473.898 558.288 473.898C558.988 473.898 559.793 473.983 560.702 474.153C561.621 474.314 562.506 474.651 563.359 475.162C564.22 475.673 564.935 476.445 565.504 477.477C566.072 478.509 566.356 479.892 566.356 481.625V496H563.004V493.045H562.833C562.606 493.519 562.227 494.026 561.697 494.565C561.166 495.105 560.461 495.564 559.58 495.943C558.7 496.322 557.625 496.511 556.356 496.511ZM556.867 493.5C558.193 493.5 559.31 493.24 560.219 492.719C561.138 492.198 561.829 491.526 562.293 490.702C562.767 489.878 563.004 489.011 563.004 488.102V485.034C562.862 485.205 562.549 485.361 562.066 485.503C561.593 485.635 561.043 485.754 560.418 485.858C559.803 485.953 559.201 486.038 558.614 486.114C558.037 486.18 557.568 486.237 557.208 486.284C556.337 486.398 555.522 486.582 554.765 486.838C554.017 487.084 553.411 487.458 552.947 487.96C552.492 488.453 552.265 489.125 552.265 489.977C552.265 491.142 552.696 492.023 553.558 492.619C554.429 493.206 555.532 493.5 556.867 493.5ZM572.474 504.182V474.182H575.713V477.648H576.111C576.357 477.269 576.698 476.786 577.134 476.199C577.579 475.602 578.213 475.072 579.037 474.608C579.87 474.134 580.997 473.898 582.418 473.898C584.255 473.898 585.874 474.357 587.276 475.276C588.677 476.194 589.771 477.496 590.557 479.182C591.343 480.867 591.736 482.856 591.736 485.148C591.736 487.458 591.343 489.461 590.557 491.156C589.771 492.842 588.682 494.149 587.29 495.077C585.898 495.995 584.293 496.455 582.474 496.455C581.073 496.455 579.951 496.223 579.108 495.759C578.265 495.285 577.616 494.75 577.162 494.153C576.707 493.547 576.357 493.045 576.111 492.648H575.827V504.182H572.474ZM575.77 485.091C575.77 486.739 576.011 488.192 576.494 489.452C576.977 490.702 577.683 491.682 578.611 492.392C579.539 493.093 580.675 493.443 582.02 493.443C583.421 493.443 584.591 493.074 585.528 492.335C586.475 491.587 587.186 490.583 587.659 489.324C588.142 488.055 588.384 486.644 588.384 485.091C588.384 483.557 588.147 482.174 587.673 480.943C587.209 479.703 586.504 478.723 585.557 478.003C584.619 477.274 583.44 476.909 582.02 476.909C580.656 476.909 579.51 477.255 578.582 477.946C577.654 478.628 576.954 479.584 576.48 480.815C576.007 482.037 575.77 483.462 575.77 485.091ZM605.713 496.455C603.743 496.455 602.015 495.986 600.528 495.048C599.051 494.111 597.896 492.799 597.062 491.114C596.239 489.428 595.827 487.458 595.827 485.205C595.827 482.932 596.239 480.948 597.062 479.253C597.896 477.558 599.051 476.241 600.528 475.304C602.015 474.366 603.743 473.898 605.713 473.898C607.683 473.898 609.406 474.366 610.884 475.304C612.37 476.241 613.526 477.558 614.349 479.253C615.183 480.948 615.599 482.932 615.599 485.205C615.599 487.458 615.183 489.428 614.349 491.114C613.526 492.799 612.37 494.111 610.884 495.048C609.406 495.986 607.683 496.455 605.713 496.455ZM605.713 493.443C607.209 493.443 608.44 493.06 609.406 492.293C610.372 491.526 611.087 490.517 611.551 489.267C612.015 488.017 612.247 486.663 612.247 485.205C612.247 483.746 612.015 482.387 611.551 481.128C611.087 479.868 610.372 478.85 609.406 478.074C608.44 477.297 607.209 476.909 605.713 476.909C604.217 476.909 602.986 477.297 602.02 478.074C601.054 478.85 600.339 479.868 599.875 481.128C599.411 482.387 599.179 483.746 599.179 485.205C599.179 486.663 599.411 488.017 599.875 489.267C600.339 490.517 601.054 491.526 602.02 492.293C602.986 493.06 604.217 493.443 605.713 493.443ZM618.785 496V492.875H619.58C620.234 492.875 620.778 492.747 621.214 492.491C621.649 492.226 622 491.767 622.265 491.114C622.54 490.451 622.748 489.532 622.89 488.358C623.041 487.174 623.15 485.669 623.217 483.841L623.614 474.182H638.16V496H634.808V477.307H626.796L626.455 485.091C626.379 486.881 626.219 488.457 625.972 489.821C625.736 491.175 625.371 492.312 624.879 493.23C624.396 494.149 623.752 494.84 622.947 495.304C622.142 495.768 621.133 496 619.921 496H618.785ZM647.208 482.08H653.458C656.015 482.08 657.97 482.728 659.325 484.026C660.679 485.323 661.356 486.966 661.356 488.955C661.356 490.261 661.053 491.45 660.447 492.52C659.841 493.58 658.951 494.428 657.776 495.062C656.602 495.688 655.163 496 653.458 496H644.31V474.182H647.663V492.875H653.458C654.784 492.875 655.873 492.525 656.725 491.824C657.577 491.123 658.004 490.223 658.004 489.125C658.004 487.97 657.577 487.027 656.725 486.298C655.873 485.569 654.784 485.205 653.458 485.205H647.208V482.08Z" fill="black"/>
<rect x="520" y="520" width="700" height="55" rx="15" fill="#E8E8E8"/>
<rect x="720" y="614" width="300" height="55" rx="15" fill="#FF4040"/>
<path d="M814.523 657V627.909H824.693C826.72 627.909 828.391 628.259 829.707 628.96C831.024 629.652 832.004 630.584 832.648 631.759C833.292 632.923 833.614 634.216 833.614 635.636C833.614 636.886 833.391 637.919 832.946 638.733C832.51 639.547 831.933 640.191 831.213 640.665C830.503 641.138 829.731 641.489 828.898 641.716V642C829.788 642.057 830.683 642.369 831.582 642.938C832.482 643.506 833.235 644.32 833.841 645.381C834.447 646.441 834.75 647.739 834.75 649.273C834.75 650.731 834.419 652.043 833.756 653.207C833.093 654.372 832.046 655.295 830.616 655.977C829.187 656.659 827.326 657 825.034 657H814.523ZM818.045 653.875H825.034C827.335 653.875 828.969 653.43 829.935 652.54C830.91 651.64 831.398 650.551 831.398 649.273C831.398 648.288 831.147 647.379 830.645 646.545C830.143 645.703 829.428 645.03 828.5 644.528C827.572 644.017 826.473 643.761 825.205 643.761H818.045V653.875ZM818.045 640.693H824.58C825.64 640.693 826.597 640.485 827.449 640.068C828.311 639.652 828.992 639.064 829.494 638.307C830.006 637.549 830.261 636.659 830.261 635.636C830.261 634.358 829.816 633.274 828.926 632.384C828.036 631.484 826.625 631.034 824.693 631.034H818.045V640.693ZM848.947 657.455C846.978 657.455 845.25 656.986 843.763 656.048C842.286 655.111 841.13 653.799 840.297 652.114C839.473 650.428 839.061 648.458 839.061 646.205C839.061 643.932 839.473 641.948 840.297 640.253C841.13 638.558 842.286 637.241 843.763 636.304C845.25 635.366 846.978 634.898 848.947 634.898C850.917 634.898 852.641 635.366 854.118 636.304C855.605 637.241 856.76 638.558 857.584 640.253C858.417 641.948 858.834 643.932 858.834 646.205C858.834 648.458 858.417 650.428 857.584 652.114C856.76 653.799 855.605 655.111 854.118 656.048C852.641 656.986 850.917 657.455 848.947 657.455ZM848.947 654.443C850.444 654.443 851.675 654.06 852.641 653.293C853.607 652.526 854.321 651.517 854.786 650.267C855.25 649.017 855.482 647.663 855.482 646.205C855.482 644.746 855.25 643.387 854.786 642.128C854.321 640.868 853.607 639.85 852.641 639.074C851.675 638.297 850.444 637.909 848.947 637.909C847.451 637.909 846.22 638.297 845.254 639.074C844.288 639.85 843.573 640.868 843.109 642.128C842.645 643.387 842.413 644.746 842.413 646.205C842.413 647.663 842.645 649.017 843.109 650.267C843.573 651.517 844.288 652.526 845.254 653.293C846.22 654.06 847.451 654.443 848.947 654.443ZM867.303 652.057L877.815 635.182H881.678V657H878.326V640.125L867.871 657H863.951V635.182H867.303V652.057ZM875.599 627.909H878.724C878.724 629.443 878.193 630.698 877.133 631.673C876.072 632.649 874.633 633.136 872.815 633.136C871.025 633.136 869.6 632.649 868.539 631.673C867.488 630.698 866.962 629.443 866.962 627.909H870.087C870.087 628.648 870.291 629.296 870.698 629.855C871.115 630.414 871.82 630.693 872.815 630.693C873.809 630.693 874.519 630.414 874.945 629.855C875.381 629.296 875.599 628.648 875.599 627.909ZM884.849 638.307V635.182H902.577V638.307H895.418V657H892.065V638.307H884.849ZM910.819 652.057L921.33 635.182H925.194V657H921.842V640.125L911.387 657H907.467V635.182H910.819V652.057Z" fill="white"/>
</svg>
